<?xml version="1.0" encoding="UTF-8" standalone="no"?>
<!-- Generator: Gravit.io -->
<svg xmlns="http://www.w3.org/2000/svg" xmlns:xlink="http://www.w3.org/1999/xlink" style="isolation:isolate" viewBox="0 0 103.778 94.434" width="103.778pt" height="94.434pt"><defs><clipPath id="_clipPath_Jxp5Aojvaz8I6KjcWrqR3cUBCIuRrXPJ"><rect width="103.778" height="94.434"/></clipPath></defs><g clip-path="url(#_clipPath_Jxp5Aojvaz8I6KjcWrqR3cUBCIuRrXPJ)"><g style="opacity:0.48;"><g><path d=" M 68.807 94.37 C 68.345 94.501 67.846 94.429 67.452 94.168 L 0.709 50.542 C 0.084 50.134 -0.165 49.354 0.113 48.662 L 12.02 18.909 C 12.206 18.44 12.61 18.082 13.103 17.941 L 75.927 0.064 C 76.42 -0.076 76.953 0.016 77.357 0.316 L 103.145 19.344 C 103.746 19.786 103.945 20.58 103.628 21.256 L 69.852 93.485 C 69.655 93.914 69.269 94.238 68.807 94.37 Z  M 3.622 48.593 L 67.7 90.479 L 100.126 21.132 L 76.009 3.336 L 49.815 10.79 L 42.51 12.869 L 14.756 20.767 L 3.622 48.593 Z " fill="rgb(255,255,255)"/><path d=" M 102.582 22.14 L 2.064 50.744 C 1.197 50.99 0.3 50.511 0.059 49.666 C -0.181 48.822 0.329 47.942 1.196 47.695 L 101.715 19.092 C 102.582 18.845 103.48 19.328 103.719 20.169 C 103.959 21.011 103.449 21.894 102.582 22.14 Z " fill="rgb(255,255,255)"/><path d=" M 68.807 94.37 C 68.65 94.414 68.483 94.439 68.316 94.434 C 67.414 94.416 66.712 93.69 66.748 92.813 L 69.111 29.523 C 69.144 28.647 69.904 27.942 70.798 27.968 C 71.699 27.985 72.402 28.712 72.366 29.589 L 70.002 92.879 C 69.977 93.588 69.473 94.18 68.807 94.37 Z " fill="rgb(255,255,255)"/><path d=" M 68.807 94.37 C 68.141 94.559 67.401 94.321 67.005 93.729 L 31.674 41.164 C 31.185 40.437 31.4 39.45 32.154 38.961 C 32.91 38.466 33.917 38.667 34.406 39.395 L 69.737 91.959 C 70.226 92.687 70.011 93.674 69.257 94.162 C 69.118 94.258 68.964 94.325 68.807 94.37 Z " fill="rgb(255,255,255)"/><path d=" M 33.476 41.805 C 32.898 41.97 32.257 41.819 31.829 41.364 L 12.324 20.549 C 11.723 19.906 11.777 18.902 12.445 18.303 C 13.118 17.706 14.144 17.744 14.747 18.386 L 34.253 39.201 C 34.857 39.844 34.8 40.848 34.131 41.447 C 33.939 41.617 33.715 41.737 33.476 41.805 Z " fill="rgb(255,255,255)"/><path d=" M 33.476 41.805 C 33.149 41.898 32.791 41.891 32.45 41.768 C 31.612 41.459 31.199 40.545 31.529 39.723 L 43.435 9.969 C 43.765 9.147 44.71 8.733 45.547 9.039 C 46.386 9.347 46.798 10.261 46.469 11.083 L 34.562 40.837 C 34.365 41.325 33.953 41.669 33.476 41.805 Z " fill="rgb(255,255,255)"/><path d=" M 71.17 31.079 C 70.693 31.215 70.162 31.139 69.74 30.827 L 43.953 11.799 C 43.239 11.274 43.109 10.279 43.659 9.576 C 44.206 8.87 45.231 8.726 45.945 9.255 L 71.733 28.282 C 72.446 28.808 72.576 29.802 72.026 30.506 C 71.802 30.794 71.5 30.985 71.17 31.079 Z " fill="rgb(255,255,255)"/><path d=" M 71.139 31.088 C 70.908 31.154 70.659 31.168 70.406 31.122 C 69.539 30.96 68.971 30.133 69.135 29.272 L 74.506 1.378 C 74.674 0.516 75.507 -0.05 76.377 0.107 C 77.245 0.269 77.813 1.096 77.649 1.957 L 72.277 29.851 C 72.156 30.466 71.702 30.928 71.139 31.088 Z " fill="rgb(255,255,255)"/></g></g></g></svg>