<?xml version="1.0" encoding="UTF-8" standalone="no"?>
<!-- Generator: Gravit.io -->
<svg xmlns="http://www.w3.org/2000/svg" xmlns:xlink="http://www.w3.org/1999/xlink" style="isolation:isolate" viewBox="0 0 1600 1000" width="1600pt" height="1000pt"><defs><clipPath id="_clipPath_6GBi9TbrrcghWVPSOCx4CnleAR6tTjAG"><rect width="1600" height="1000"/></clipPath></defs><g clip-path="url(#_clipPath_6GBi9TbrrcghWVPSOCx4CnleAR6tTjAG)"><linearGradient id="_lgradient_0" x1="0.004444444444444501" y1="0.014814814814814836" x2="1.004707818930041" y2="0.8961975308641974" gradientTransform="matrix(1600,0,0,1000,0,0)" gradientUnits="userSpaceOnUse"><stop offset="2.1739130434782594%" stop-opacity="1" style="stop-color:rgb(34,34,34)"/><stop offset="100%" stop-opacity="1" style="stop-color:rgb(89,89,89)"/></linearGradient><rect x="0" y="0" width="1600" height="1000" transform="matrix(1,0,0,1,0,0)" fill="url(#_lgradient_0)"/><g style="opacity:0.34;"><g><path d=" M 1166.914 681.576 C 1166.249 681.996 1165.431 682.113 1164.692 681.884 L 1039.641 644.051 C 1038.469 643.697 1037.718 642.586 1037.837 641.369 L 1042.845 589.098 C 1042.922 588.276 1043.392 587.526 1044.102 587.078 L 1134.645 530.013 C 1135.355 529.565 1136.235 529.465 1137.009 529.751 L 1186.327 547.783 C 1187.475 548.201 1188.154 549.357 1187.968 550.567 L 1168.151 679.704 C 1168.038 680.469 1167.58 681.157 1166.914 681.576 Z  M 1043.322 639.644 L 1163.381 675.97 L 1182.404 551.986 L 1136.282 535.12 L 1098.53 558.914 L 1088.002 565.549 L 1048.003 590.758 L 1043.322 639.644 Z " fill="rgb(213,213,213)"/><path d=" M 1186.731 552.439 L 1041.863 643.743 C 1040.614 644.53 1038.982 644.19 1038.215 642.973 C 1037.448 641.755 1037.845 640.136 1039.094 639.349 L 1183.962 548.045 C 1185.211 547.258 1186.846 547.603 1187.61 548.816 C 1188.374 550.028 1187.981 551.652 1186.731 552.439 Z " fill="rgb(213,213,213)"/><path d=" M 1166.914 681.576 C 1166.688 681.719 1166.438 681.834 1166.172 681.903 C 1164.747 682.292 1163.307 681.474 1162.959 680.079 L 1137.505 579.474 C 1137.152 578.081 1138.024 576.624 1139.441 576.252 C 1140.866 575.864 1142.305 576.682 1142.653 578.077 L 1168.107 678.682 C 1168.394 679.809 1167.874 680.972 1166.914 681.576 Z " fill="rgb(213,213,213)"/><path d=" M 1166.914 681.576 C 1165.955 682.181 1164.682 682.149 1163.786 681.4 L 1084.006 615.034 C 1082.902 614.115 1082.785 612.464 1083.745 611.348 C 1084.705 610.222 1086.383 610.073 1087.487 610.992 L 1167.266 677.358 C 1168.37 678.277 1168.488 679.928 1167.527 681.043 C 1167.352 681.258 1167.141 681.434 1166.914 681.576 Z " fill="rgb(213,213,213)"/><path d=" M 1087.135 615.211 C 1086.302 615.736 1085.225 615.794 1084.342 615.276 L 1044.079 591.537 C 1042.838 590.803 1042.46 589.199 1043.235 587.95 C 1044.017 586.702 1045.648 586.288 1046.893 587.02 L 1087.156 610.758 C 1088.401 611.49 1088.775 613.096 1088 614.346 C 1087.776 614.702 1087.479 614.994 1087.135 615.211 Z " fill="rgb(213,213,213)"/><path d=" M 1087.135 615.211 C 1086.664 615.507 1086.097 615.662 1085.504 615.624 C 1084.044 615.525 1082.973 614.279 1083.113 612.834 L 1088.121 560.563 C 1088.26 559.118 1089.556 558.032 1091.013 558.126 C 1092.473 558.225 1093.544 559.472 1093.404 560.916 L 1088.396 613.188 C 1088.311 614.046 1087.823 614.777 1087.135 615.211 Z " fill="rgb(213,213,213)"/><path d=" M 1141.46 580.972 C 1140.772 581.405 1139.902 581.53 1139.095 581.234 L 1089.778 563.202 C 1088.415 562.704 1087.751 561.201 1088.292 559.841 C 1088.826 558.479 1090.372 557.781 1091.738 558.283 L 1141.055 576.315 C 1142.419 576.813 1143.082 578.316 1142.541 579.676 C 1142.322 580.232 1141.935 580.672 1141.46 580.972 Z " fill="rgb(213,213,213)"/><path d=" M 1141.414 581 C 1141.082 581.21 1140.698 581.348 1140.278 581.391 C 1138.839 581.537 1137.565 580.498 1137.427 579.069 L 1133.016 532.734 C 1132.882 531.302 1133.932 530.027 1135.372 529.874 C 1136.812 529.728 1138.086 530.766 1138.224 532.196 L 1142.635 578.531 C 1142.727 579.553 1142.226 580.489 1141.414 581 Z " fill="rgb(213,213,213)"/></g></g><g style="opacity:0.43;"><path d=" M 1482.067 696.193 C 1452.504 703.395 1434.376 733.199 1441.578 762.762 C 1448.78 792.326 1478.585 810.453 1508.148 803.251 C 1537.711 796.049 1555.839 766.245 1548.637 736.681 C 1541.435 707.118 1511.63 688.991 1482.067 696.193 Z  M 1505.455 792.196 C 1481.997 797.911 1458.348 783.527 1452.633 760.069 C 1446.919 736.611 1461.302 712.962 1484.76 707.247 C 1508.218 701.533 1531.867 715.916 1537.582 739.374 C 1543.296 762.832 1528.913 786.481 1505.455 792.196 Z " fill="rgb(255,210,62)"/><path d=" M 1548.637 736.681 C 1541.779 708.532 1514.431 690.752 1486.309 695.332 C 1498.567 697.338 1509.791 703.457 1518.117 712.554 C 1527.533 718.383 1534.754 727.766 1537.582 739.375 C 1542.18 758.25 1533.763 777.247 1518.078 786.927 C 1510.953 794.725 1501.513 800.563 1490.478 803.251 C 1489.064 803.596 1487.649 803.881 1486.236 804.111 C 1493.315 805.27 1500.739 805.056 1508.148 803.251 C 1537.711 796.049 1555.839 766.245 1548.637 736.681 Z " fill="rgb(229,187,69)"/><path d=" M 1600 760.584 C 1589.446 736.621 1562.93 722.95 1536.604 729.363 C 1507.041 736.565 1488.914 766.37 1496.116 795.933 C 1503.318 825.496 1533.122 843.624 1562.685 836.422 C 1579.949 832.216 1593.313 820.303 1600 805.225 L 1600 760.584 L 1600 760.584 Z  M 1559.992 825.366 C 1536.534 831.081 1512.885 816.697 1507.171 793.239 C 1501.456 769.782 1515.84 746.133 1539.298 740.418 C 1562.756 734.703 1586.405 749.087 1592.119 772.545 C 1597.834 796.003 1583.45 819.652 1559.992 825.366 Z " fill="rgb(255,165,31)"/><path d=" M 1600 760.6 C 1590.023 737.913 1565.738 724.449 1540.847 728.503 C 1553.104 730.508 1564.328 736.628 1572.654 745.725 C 1582.07 751.553 1589.291 760.937 1592.119 772.545 C 1596.717 791.421 1588.3 810.418 1572.615 820.098 C 1565.489 827.896 1556.049 833.734 1545.015 836.422 C 1543.601 836.766 1542.185 837.052 1540.772 837.282 C 1547.852 838.44 1555.276 838.226 1562.685 836.422 C 1579.949 832.216 1593.313 820.302 1600 805.224 L 1600 760.6 L 1600 760.6 Z " fill="rgb(232,150,52)"/><path d=" M 1537.582 739.374 C 1537.696 739.845 1537.8 740.315 1537.898 740.786 C 1538.361 740.657 1538.827 740.533 1539.297 740.418 C 1542.605 739.612 1545.916 739.206 1549.18 739.169 C 1549.018 738.339 1548.838 737.51 1548.636 736.681 C 1547.895 733.638 1546.911 730.719 1545.715 727.933 C 1542.692 728.153 1539.647 728.622 1536.604 729.363 C 1535.775 729.565 1534.956 729.788 1534.145 730.024 C 1535.613 732.94 1536.776 736.067 1537.582 739.374 Z " fill="rgb(229,187,69)"/><path d=" M 1495.107 705.507 L 1473.412 685.341 L 1481.699 673 L 1508.516 673 L 1516.803 685.341 L 1495.107 705.507 Z " fill="rgb(79,220,255)"/><path d=" M 1495.107 705.507 L 1495.107 673 L 1508.516 673 L 1516.803 685.341 L 1495.107 705.507 Z " fill="rgb(79,220,255)"/><path d=" M 1516.79 685.322 L 1508.516 673 L 1481.699 673 L 1473.425 685.322 L 1516.79 685.322 Z " fill="rgb(79,220,255)"/><path d=" M 1495.107 673 L 1495.107 685.322 L 1516.79 685.322 L 1511.423 677.33 L 1508.516 673 L 1495.107 673 Z " fill="rgb(79,220,255)"/></g><g style="opacity:0.48;"><g><path d=" M 1444.817 496.002 C 1444.465 495.835 1444.199 495.525 1444.098 495.155 L 1426.657 432.87 C 1426.494 432.287 1426.758 431.678 1427.298 431.404 L 1450.46 419.6 C 1450.824 419.414 1451.262 419.411 1451.638 419.588 L 1499.54 442.234 C 1499.916 442.412 1500.192 442.753 1500.278 443.152 L 1505.857 468.543 C 1505.988 469.134 1505.685 469.725 1505.13 469.969 L 1445.928 496.02 C 1445.578 496.177 1445.169 496.168 1444.817 496.002 Z  M 1429.476 433.236 L 1446.22 493.035 L 1503.059 468.022 L 1497.842 444.276 L 1477.869 434.834 L 1472.299 432.2 L 1451.138 422.196 L 1429.476 433.236 Z " fill="rgb(255,255,255)"/><path d=" M 1504.02 469.95 L 1427.376 433.717 C 1426.715 433.404 1426.424 432.632 1426.728 431.988 C 1427.033 431.344 1427.814 431.079 1428.475 431.392 L 1505.119 467.625 C 1505.78 467.938 1506.07 468.712 1505.767 469.354 C 1505.463 469.995 1504.681 470.262 1504.02 469.95 Z " fill="rgb(255,255,255)"/><path d=" M 1444.817 496.002 C 1444.697 495.945 1444.583 495.871 1444.483 495.778 C 1443.942 495.287 1443.901 494.468 1444.392 493.952 L 1479.643 456.577 C 1480.131 456.06 1480.971 456.036 1481.503 456.529 C 1482.044 457.021 1482.085 457.84 1481.595 458.356 L 1446.343 495.731 C 1445.949 496.15 1445.325 496.242 1444.817 496.002 Z " fill="rgb(255,255,255)"/><path d=" M 1444.817 496.002 C 1444.309 495.762 1443.985 495.221 1444.059 494.648 L 1450.57 443.686 C 1450.66 442.98 1451.318 442.492 1452.04 442.597 C 1452.765 442.699 1453.273 443.36 1453.183 444.065 L 1446.673 495.027 C 1446.583 495.733 1445.924 496.221 1445.203 496.116 C 1445.067 496.1 1444.937 496.058 1444.817 496.002 Z " fill="rgb(255,255,255)"/><path d=" M 1451.327 445.039 C 1450.887 444.831 1450.576 444.397 1450.558 443.891 L 1449.769 420.764 C 1449.746 420.051 1450.315 419.467 1451.043 419.458 C 1451.772 419.453 1452.379 420.024 1452.404 420.738 L 1453.193 443.865 C 1453.218 444.579 1452.647 445.163 1451.919 445.171 C 1451.71 445.172 1451.509 445.126 1451.327 445.039 Z " fill="rgb(255,255,255)"/><path d=" M 1451.327 445.039 C 1451.078 444.922 1450.863 444.726 1450.721 444.468 C 1450.374 443.832 1450.611 443.054 1451.251 442.728 L 1474.414 430.924 C 1475.054 430.599 1475.852 430.851 1476.2 431.485 C 1476.547 432.121 1476.311 432.899 1475.67 433.225 L 1452.508 445.029 C 1452.127 445.221 1451.692 445.212 1451.327 445.039 Z " fill="rgb(255,255,255)"/><path d=" M 1480.069 458.627 C 1479.705 458.455 1479.421 458.125 1479.33 457.709 L 1473.752 432.318 C 1473.597 431.616 1474.049 430.94 1474.761 430.804 C 1475.471 430.665 1476.174 431.125 1476.327 431.829 L 1481.906 457.22 C 1482.061 457.922 1481.609 458.599 1480.897 458.734 C 1480.607 458.79 1480.32 458.746 1480.069 458.627 Z " fill="rgb(255,255,255)"/><path d=" M 1480.045 458.616 C 1479.869 458.532 1479.709 458.409 1479.579 458.245 C 1479.136 457.683 1479.231 456.874 1479.791 456.437 L 1497.971 442.277 C 1498.533 441.841 1499.345 441.94 1499.792 442.501 C 1500.235 443.064 1500.14 443.872 1499.58 444.31 L 1481.4 458.469 C 1480.998 458.779 1480.474 458.819 1480.045 458.616 Z " fill="rgb(255,255,255)"/></g></g></g></svg>