<?xml version="1.0" encoding="UTF-8" standalone="no"?>
<!-- Generator: Gravit.io -->
<svg xmlns="http://www.w3.org/2000/svg" xmlns:xlink="http://www.w3.org/1999/xlink" style="isolation:isolate" viewBox="0 0 164.753 165" width="164.753pt" height="165pt"><defs><clipPath id="_clipPath_O8sSWyNCoorwjVdg30fa5P7jkin0eEtq"><rect width="164.753" height="165"/></clipPath></defs><g clip-path="url(#_clipPath_O8sSWyNCoorwjVdg30fa5P7jkin0eEtq)"><g style="opacity:0.43;"><path d=" M 42.067 23.193 C 12.504 30.395 -5.624 60.199 1.578 89.763 C 8.78 119.326 38.585 137.453 68.148 130.251 C 97.711 123.049 115.839 93.245 108.637 63.682 C 101.435 34.118 71.63 15.991 42.067 23.193 Z  M 65.455 119.196 C 41.997 124.911 18.348 110.527 12.633 87.069 C 6.919 63.611 21.302 39.962 44.76 34.248 C 68.218 28.533 91.867 42.916 97.582 66.375 C 103.296 89.833 88.913 113.482 65.455 119.196 Z " fill="rgb(255,210,62)"/><path d=" M 108.637 63.682 C 101.779 35.533 74.431 17.753 46.309 22.333 C 58.567 24.338 69.791 30.458 78.117 39.555 C 87.533 45.383 94.754 54.766 97.582 66.375 C 102.18 85.251 93.763 104.248 78.078 113.927 C 70.953 121.725 61.513 127.563 50.478 130.251 C 49.064 130.596 47.649 130.881 46.236 131.112 C 53.315 132.27 60.739 132.056 68.148 130.251 C 97.711 123.049 115.839 93.245 108.637 63.682 Z " fill="rgb(229,187,69)"/><path d=" M 96.604 56.363 C 67.041 63.565 48.914 93.37 56.116 122.933 C 63.318 152.496 93.122 170.624 122.685 163.422 C 152.249 156.22 170.376 126.416 163.174 96.852 C 155.972 67.289 126.168 49.161 96.604 56.363 Z  M 119.992 152.367 C 96.534 158.081 72.885 143.698 67.171 120.24 C 61.456 96.782 75.84 73.133 99.298 67.418 C 122.756 61.703 146.405 76.087 152.119 99.545 C 157.834 123.003 143.45 146.652 119.992 152.367 Z " fill="rgb(255,165,31)"/><path d=" M 163.174 96.852 C 156.316 68.703 128.968 50.923 100.847 55.503 C 113.104 57.508 124.328 63.628 132.654 72.725 C 142.07 78.553 149.291 87.937 152.119 99.545 C 156.717 118.421 148.3 137.418 132.615 147.098 C 125.489 154.896 116.049 160.734 105.015 163.422 C 103.601 163.766 102.185 164.052 100.772 164.282 C 107.852 165.44 115.276 165.227 122.685 163.422 C 152.249 156.22 170.376 126.416 163.174 96.852 Z " fill="rgb(232,150,52)"/><path d=" M 97.582 66.375 C 97.696 66.845 97.8 67.316 97.898 67.786 C 98.361 67.657 98.827 67.533 99.297 67.418 C 102.605 66.612 105.916 66.206 109.18 66.169 C 109.018 65.34 108.838 64.511 108.636 63.681 C 107.895 60.638 106.911 57.719 105.715 54.933 C 102.692 55.153 99.647 55.622 96.604 56.363 C 95.775 56.565 94.956 56.788 94.145 57.025 C 95.613 59.94 96.776 63.067 97.582 66.375 Z " fill="rgb(229,187,69)"/><path d=" M 55.107 32.507 L 33.412 12.341 L 41.699 0 L 68.516 0 L 76.803 12.341 L 55.107 32.507 Z " fill="rgb(79,220,255)"/><path d=" M 55.107 32.507 L 55.107 0 L 68.516 0 L 76.803 12.341 L 55.107 32.507 Z " fill="rgb(79,220,255)"/><path d=" M 76.79 12.322 L 68.516 0 L 41.699 0 L 33.425 12.322 L 76.79 12.322 Z " fill="rgb(79,220,255)"/><path d=" M 55.107 0 L 55.107 12.322 L 76.79 12.322 L 71.423 4.33 L 68.516 0 L 55.107 0 Z " fill="rgb(79,220,255)"/></g></g></svg>